<svg width="57" height="34" viewBox="0 0 57 34" fill="none" xmlns="http://www.w3.org/2000/svg">
<path d="M13.472 26.9453C9.75647 26.9453 6.58214 25.6326 3.94903 23.0071C1.31591 20.374 -0.000642776 17.1959 -0.000642776 13.4726C-0.000642776 9.75711 1.31591 6.58278 3.94903 3.94967C6.58214 1.31655 9.75647 0 13.472 0V6.73632C11.6142 6.73632 10.029 7.39651 8.71627 8.71691C7.39588 10.0296 6.73568 11.6149 6.73568 13.4726C6.73568 15.3304 7.39588 16.9156 8.71627 18.2284C10.029 19.5488 11.6142 20.209 13.472 20.209V26.9453Z" fill="url(#paint0_linear_237_3102)"/>
<path d="M13.0195 33.2143C16.7351 33.2143 19.9094 31.9016 22.5425 29.2761C25.1756 26.643 26.4922 23.4649 26.4922 19.7417C26.4922 16.0261 25.1756 12.8518 22.5425 10.2187C19.9094 7.58556 16.7351 6.26901 13.0195 6.26901V13.0053C14.8773 13.0053 16.4626 13.6655 17.7753 14.9859C19.0957 16.2986 19.7559 17.8839 19.7559 19.7417C19.7559 21.5994 19.0957 23.1847 17.7753 24.4974C16.4626 25.8178 14.8773 26.478 13.0195 26.478V33.2143Z" fill="url(#paint1_linear_237_3102)"/>
<path d="M31.3907 16.3358V11.2865H29.3914V9.8266H35.2218V11.2865H33.2318V16.3358H31.3907ZM34.7997 16.3358L37.673 9.8266H39.4863L42.3689 16.3358H40.4534L38.2031 10.7286H38.9284L36.6781 16.3358H34.7997ZM36.3712 15.0711L36.8454 13.7135H40.0256L40.4999 15.0711H36.3712ZM42.8909 16.3358V9.8266H45.8665C46.4616 9.8266 46.9731 9.92269 47.4008 10.1149C47.8347 10.307 48.1695 10.586 48.4051 10.9518C48.6406 11.3113 48.7584 11.7391 48.7584 12.235C48.7584 12.7247 48.6406 13.1494 48.4051 13.5089C48.1695 13.8623 47.8347 14.135 47.4008 14.3272C46.9731 14.5132 46.4616 14.6062 45.8665 14.6062H43.9138L44.732 13.8344V16.3358H42.8909ZM46.9173 16.3358L45.2993 13.9646H47.2613L48.8886 16.3358H46.9173ZM44.732 14.0297L43.9138 13.1835H45.7549C46.1393 13.1835 46.4244 13.0998 46.6104 12.9324C46.8026 12.765 46.8987 12.5326 46.8987 12.235C46.8987 11.9312 46.8026 11.6957 46.6104 11.5283C46.4244 11.3609 46.1393 11.2772 45.7549 11.2772H43.9138L44.732 10.431V14.0297ZM53.0566 16.4659C52.5359 16.4659 52.0555 16.3822 51.6153 16.2149C51.1752 16.0475 50.7908 15.8119 50.4623 15.5082C50.1399 15.1982 49.8889 14.8386 49.7091 14.4295C49.5293 14.0204 49.4394 13.5709 49.4394 13.0812C49.4394 12.5914 49.5293 12.142 49.7091 11.7329C49.8889 11.3237 50.1399 10.9673 50.4623 10.6635C50.7908 10.3535 51.1752 10.1149 51.6153 9.94749C52.0555 9.78011 52.5359 9.69642 53.0566 9.69642C53.5836 9.69642 54.064 9.78011 54.498 9.94749C54.9381 10.1149 55.3193 10.3535 55.6417 10.6635C55.9641 10.9673 56.2151 11.3237 56.3949 11.7329C56.5809 12.142 56.6739 12.5914 56.6739 13.0812C56.6739 13.5709 56.5809 14.0235 56.3949 14.4388C56.2151 14.8479 55.9641 15.2044 55.6417 15.5082C55.3193 15.8119 54.9381 16.0475 54.498 16.2149C54.064 16.3822 53.5836 16.4659 53.0566 16.4659ZM53.0566 14.9409C53.3046 14.9409 53.534 14.8975 53.7447 14.8108C53.9617 14.724 54.1477 14.6 54.3027 14.4388C54.4639 14.2714 54.5878 14.073 54.6746 13.8437C54.7676 13.6143 54.8141 13.3601 54.8141 13.0812C54.8141 12.796 54.7676 12.5418 54.6746 12.3187C54.5878 12.0893 54.4639 11.894 54.3027 11.7329C54.1477 11.5655 53.9617 11.4384 53.7447 11.3516C53.534 11.2648 53.3046 11.2214 53.0566 11.2214C52.8087 11.2214 52.5762 11.2648 52.3592 11.3516C52.1485 11.4384 51.9625 11.5655 51.8013 11.7329C51.6463 11.894 51.5223 12.0893 51.4294 12.3187C51.3426 12.5418 51.2992 12.796 51.2992 13.0812C51.2992 13.3601 51.3426 13.6143 51.4294 13.8437C51.5223 14.073 51.6463 14.2714 51.8013 14.4388C51.9625 14.6 52.1485 14.724 52.3592 14.8108C52.5762 14.8975 52.8087 14.9409 53.0566 14.9409Z" fill="#00324D"/>
<path d="M38.1821 21.8966L39.7018 18.5408H40.1764L41.701 21.8966H41.1976L39.8409 18.8092H40.0326L38.6759 21.8966H38.1821ZM38.8293 21.0576L38.9588 20.6741H40.8476L40.9866 21.0576H38.8293ZM42.2016 21.8966V18.5408H43.5103C43.8044 18.5408 44.0553 18.5871 44.263 18.6798C44.4707 18.7725 44.6305 18.9067 44.7424 19.0825C44.8543 19.2583 44.9102 19.4676 44.9102 19.7105C44.9102 19.9534 44.8543 20.1628 44.7424 20.3385C44.6305 20.5111 44.4707 20.6454 44.263 20.7412C44.0553 20.8339 43.8044 20.8803 43.5103 20.8803H42.4652L42.681 20.6549V21.8966H42.2016ZM42.681 20.7029L42.4652 20.4632H43.4959C43.8028 20.4632 44.0345 20.3977 44.1911 20.2666C44.3509 20.1356 44.4308 19.9502 44.4308 19.7105C44.4308 19.4708 44.3509 19.2855 44.1911 19.1544C44.0345 19.0234 43.8028 18.9579 43.4959 18.9579H42.4652L42.681 18.7182V20.7029ZM45.6145 21.8966V18.5408H46.9233C47.2173 18.5408 47.4682 18.5871 47.6759 18.6798C47.8837 18.7725 48.0435 18.9067 48.1553 19.0825C48.2672 19.2583 48.3231 19.4676 48.3231 19.7105C48.3231 19.9534 48.2672 20.1628 48.1553 20.3385C48.0435 20.5111 47.8837 20.6454 47.6759 20.7412C47.4682 20.8339 47.2173 20.8803 46.9233 20.8803H45.8782L46.0939 20.6549V21.8966H45.6145ZM46.0939 20.7029L45.8782 20.4632H46.9089C47.2157 20.4632 47.4474 20.3977 47.604 20.2666C47.7638 20.1356 47.8437 19.9502 47.8437 19.7105C47.8437 19.4708 47.7638 19.2855 47.604 19.1544C47.4474 19.0234 47.2157 18.9579 46.9089 18.9579H45.8782L46.0939 18.7182V20.7029Z" fill="#00324D"/>
<defs>
<linearGradient id="paint0_linear_237_3102" x1="24.6136" y1="-4.21045e-07" x2="7.6166" y2="35.8726" gradientUnits="userSpaceOnUse">
<stop stop-color="#E41D24"/>
<stop offset="0.404759" stop-color="#BB181D"/>
<stop offset="0.676352" stop-color="#00324D"/>
</linearGradient>
<linearGradient id="paint1_linear_237_3102" x1="24.6136" y1="-4.21045e-07" x2="7.6166" y2="35.8726" gradientUnits="userSpaceOnUse">
<stop stop-color="#E41D24"/>
<stop offset="0.404759" stop-color="#BB181D"/>
<stop offset="0.676352" stop-color="#00324D"/>
</linearGradient>
</defs>
</svg>
