<svg width="182" height="106" viewBox="0 0 182 106" fill="none" xmlns="http://www.w3.org/2000/svg">
<path d="M42.8584 85.7164C31.0389 85.7164 20.9409 81.5405 12.5646 73.1887C4.18836 64.8124 0.000228882 54.7022 0.000228882 42.8582C0.000228882 31.0386 4.18836 20.9407 12.5646 12.5644C20.9409 4.18812 31.0389 0 42.8584 0V21.4291C36.9487 21.4291 31.9058 23.5293 27.7299 27.7296C23.5295 31.9055 21.4293 36.9484 21.4293 42.8582C21.4293 48.768 23.5295 53.8109 27.7299 57.9868C31.9058 62.1871 36.9487 64.2873 42.8584 64.2873V85.7164Z" fill="#E41D24"/>
<path d="M41.4191 105.659C53.2387 105.659 63.3366 101.483 71.7129 93.1312C80.0892 84.7549 84.2773 74.6448 84.2773 62.8007C84.2773 50.9812 80.0892 40.8832 71.7129 32.5069C63.3366 24.1307 53.2387 19.9425 41.4191 19.9425V41.3716C47.3289 41.3716 52.3718 43.4718 56.5477 47.6721C60.7481 51.8481 62.8482 56.8909 62.8482 62.8007C62.8482 68.7105 60.7481 73.7534 56.5477 77.9293C52.3718 82.1297 47.3289 84.2299 41.4191 84.2299V105.659Z" fill="#E41D24"/>
<path d="M99.8586 52.3359V36.2736H93.4988V31.6295H112.046V36.2736H105.716V52.3359H99.8586ZM110.703 52.3359L119.844 31.6295H125.612L134.782 52.3359H128.688L121.53 34.4988H123.837L116.678 52.3359H110.703ZM115.702 48.313L117.211 43.9942H127.327L128.836 48.313H115.702ZM136.442 52.3359V31.6295H145.908C147.801 31.6295 149.428 31.9352 150.789 32.5465C152.169 33.1578 153.234 34.0452 153.984 35.2087C154.733 36.3525 155.108 37.7132 155.108 39.2909C155.108 40.8488 154.733 42.1996 153.984 43.3434C153.234 44.4675 152.169 45.3352 150.789 45.9465C149.428 46.5381 147.801 46.8339 145.908 46.8339H139.696L142.299 44.3787V52.3359H136.442ZM149.251 52.3359L144.104 44.7929H150.345L155.522 52.3359H149.251ZM142.299 44.9999L139.696 42.3081H145.553C146.776 42.3081 147.683 42.0419 148.274 41.5094C148.886 40.977 149.191 40.2375 149.191 39.2909C149.191 38.3246 148.886 37.5752 148.274 37.0427C147.683 36.5103 146.776 36.2441 145.553 36.2441H139.696L142.299 33.5522V44.9999ZM168.781 52.7501C167.124 52.7501 165.596 52.4838 164.196 51.9514C162.796 51.4189 161.573 50.6696 160.528 49.7033C159.502 48.7172 158.704 47.5735 158.132 46.2719C157.56 44.9704 157.274 43.5406 157.274 41.9827C157.274 40.4248 157.56 38.9951 158.132 37.6935C158.704 36.392 159.502 35.258 160.528 34.2917C161.573 33.3057 162.796 32.5465 164.196 32.014C165.596 31.4816 167.124 31.2154 168.781 31.2154C170.457 31.2154 171.985 31.4816 173.366 32.014C174.766 32.5465 175.979 33.3057 177.004 34.2917C178.03 35.258 178.828 36.392 179.4 37.6935C179.992 38.9951 180.288 40.4248 180.288 41.9827C180.288 43.5406 179.992 44.9802 179.4 46.3015C178.828 47.603 178.03 48.737 177.004 49.7033C175.979 50.6696 174.766 51.4189 173.366 51.9514C171.985 52.4838 170.457 52.7501 168.781 52.7501ZM168.781 47.8988C169.57 47.8988 170.299 47.7608 170.97 47.4847C171.66 47.2086 172.252 46.8142 172.745 46.3015C173.257 45.769 173.652 45.138 173.928 44.4083C174.224 43.6787 174.372 42.8701 174.372 41.9827C174.372 41.0756 174.224 40.267 173.928 39.5571C173.652 38.8274 173.257 38.2063 172.745 37.6935C172.252 37.1611 171.66 36.7568 170.97 36.4807C170.299 36.2046 169.57 36.0666 168.781 36.0666C167.992 36.0666 167.252 36.2046 166.562 36.4807C165.892 36.7568 165.3 37.1611 164.787 37.6935C164.294 38.2063 163.9 38.8274 163.604 39.5571C163.328 40.267 163.19 41.0756 163.19 41.9827C163.19 42.8701 163.328 43.6787 163.604 44.4083C163.9 45.138 164.294 45.769 164.787 46.3015C165.3 46.8142 165.892 47.2086 166.562 47.4847C167.252 47.7608 167.992 47.8988 168.781 47.8988Z" fill="white"/>
<path d="M120.965 68.7505L125.8 58.0752H127.31L132.159 68.7505H130.558L126.242 58.9292H126.852L122.536 68.7505H120.965ZM123.024 66.0817L123.436 64.8616H129.445L129.887 66.0817H123.024ZM133.752 68.7505V58.0752H137.915C138.851 58.0752 139.649 58.2226 140.309 58.5174C140.97 58.8123 141.479 59.2393 141.835 59.7985C142.19 60.3577 142.368 61.0236 142.368 61.7963C142.368 62.569 142.19 63.2349 141.835 63.7941C141.479 64.3431 140.97 64.7701 140.309 65.0751C139.649 65.37 138.851 65.5174 137.915 65.5174H134.591L135.277 64.8006V68.7505H133.752ZM135.277 64.9531L134.591 64.1906H137.869C138.845 64.1906 139.583 63.9822 140.081 63.5653C140.589 63.1485 140.843 62.5588 140.843 61.7963C140.843 61.0338 140.589 60.4441 140.081 60.0272C139.583 59.6104 138.845 59.402 137.869 59.402H134.591L135.277 58.6394V64.9531ZM144.609 68.7505V58.0752H148.772C149.708 58.0752 150.506 58.2226 151.166 58.5174C151.827 58.8123 152.336 59.2393 152.692 59.7985C153.047 60.3577 153.225 61.0236 153.225 61.7963C153.225 62.569 153.047 63.2349 152.692 63.7941C152.336 64.3431 151.827 64.7701 151.166 65.0751C150.506 65.37 149.708 65.5174 148.772 65.5174H145.448L146.134 64.8006V68.7505H144.609ZM146.134 64.9531L145.448 64.1906H148.726C149.702 64.1906 150.44 63.9822 150.938 63.5653C151.446 63.1485 151.7 62.5588 151.7 61.7963C151.7 61.0338 151.446 60.4441 150.938 60.0272C150.44 59.6104 149.702 59.402 148.726 59.402H145.448L146.134 58.6394V64.9531Z" fill="white"/>
</svg>
