<svg width="112" height="23" viewBox="0 0 112 23" fill="none" xmlns="http://www.w3.org/2000/svg">
<path d="M0.990754 0.195611C0.546503 0.200718 0.190505 0.564994 0.195611 1.00925L0.278823 8.24874C0.28393 8.693 0.648206 9.04899 1.09246 9.04389C1.53671 9.03878 1.89271 8.67451 1.8876 8.23025L1.81363 1.79514L8.24874 1.72118C8.693 1.71607 9.04899 1.35179 9.04389 0.907542C9.03878 0.46329 8.67451 0.107293 8.23025 0.112399L0.990754 0.195611ZM1 1C0.437749 1.57533 0.4381 1.57567 0.438541 1.5761C0.438808 1.57636 0.43934 1.57688 0.439874 1.5774C0.440943 1.57844 0.442373 1.57983 0.444164 1.58157C0.447745 1.58504 0.452768 1.5899 0.459229 1.59613C0.472152 1.60857 0.490831 1.62647 0.515243 1.64963C0.564065 1.69596 0.635819 1.76334 0.730318 1.85029C0.919311 2.0242 1.19931 2.2764 1.5688 2.59494C2.30775 3.23198 3.40492 4.13458 4.84829 5.20704C7.7347 7.35172 12.0078 10.1773 17.5714 12.9168C28.7007 18.3969 44.9967 23.5335 65.676 22.1819L65.571 20.5765C45.2237 21.9064 29.2081 16.8534 18.2822 11.4735C12.8182 8.78301 8.62794 6.01102 5.80784 3.91562C4.39796 2.86804 3.33109 1.98997 2.61932 1.37637C2.26346 1.06958 1.99642 0.82895 1.81972 0.66636C1.73138 0.585067 1.66562 0.523289 1.62264 0.482511C1.60116 0.462122 1.58536 0.446984 1.57529 0.437283C1.57025 0.432432 1.56665 0.42894 1.56447 0.426831C1.56338 0.425776 1.56266 0.425067 1.56229 0.424707C1.5621 0.424526 1.56209 0.424518 1.562 0.424428C1.56208 0.424507 1.56225 0.424673 1 1ZM65.676 22.1819C86.2988 20.834 97.7953 15.705 104.157 10.8222C107.337 8.38117 109.221 6.01089 110.315 4.22774C110.861 3.33702 111.209 2.59502 111.422 2.06679C111.528 1.80272 111.601 1.59217 111.649 1.44325C111.672 1.3688 111.69 1.30975 111.702 1.26713C111.708 1.24582 111.712 1.22861 111.716 1.21563C111.717 1.20915 111.719 1.20372 111.72 1.19936C111.72 1.19718 111.721 1.19527 111.721 1.19363C111.721 1.19281 111.722 1.19179 111.722 1.19138C111.722 1.19042 111.722 1.18953 110.94 1C110.159 0.810473 110.159 0.809717 110.159 0.809029C110.159 0.808889 110.159 0.808266 110.159 0.807985C110.159 0.807421 110.159 0.807124 110.159 0.807091C110.159 0.807024 110.159 0.808012 110.159 0.810041C110.158 0.814099 110.155 0.822317 110.152 0.834572C110.145 0.859083 110.133 0.899741 110.116 0.955562C110.08 1.0672 110.021 1.23949 109.93 1.46458C109.748 1.91467 109.44 2.57626 108.943 3.3866C107.95 5.00557 106.198 7.22731 103.177 9.54591C97.1367 14.1824 85.9747 19.2429 65.571 20.5765L65.676 22.1819Z" fill="#E41D24"/>
</svg>
