<svg width="83" height="83" viewBox="0 0 83 83" fill="none" xmlns="http://www.w3.org/2000/svg">
<path d="M36.636 14.9688C36.636 15.6167 36.0904 16.1623 35.4425 16.1623H31.5891C24.2234 16.1623 18.2217 22.164 18.2217 29.5297V61.0045C18.2217 61.6524 17.6761 62.1981 17.0282 62.1981H14.6412C10.5832 62.1981 7.30957 58.9244 7.30957 54.8664V14.9688C7.30957 10.9109 10.5832 7.63721 14.6412 7.63721H29.3044C33.3624 7.63721 36.636 10.9109 36.636 14.9688Z" fill="#E41D24"/>
<path d="M75.51 14.9688V54.8664C75.51 58.9244 72.2364 62.1981 68.1784 62.1981H66.0301C65.3822 62.1981 64.8366 61.6524 64.8366 61.0045V29.5297C64.8366 22.164 58.8349 16.1623 51.4692 16.1623H47.3771C46.7292 16.1623 46.1836 15.6167 46.1836 14.9688C46.1836 10.9109 49.4572 7.63721 53.5152 7.63721H68.1784C72.2364 7.63721 75.51 10.9109 75.51 14.9688Z" fill="#E41D24"/>
<path d="M51.4698 21.2773H31.5892C27.0198 21.2773 23.3369 24.9602 23.3369 29.5297V67.5859C23.3369 72.1553 27.0198 75.8382 31.5892 75.8382H37.1476C38.1024 75.8382 38.8527 75.088 38.8527 74.1332V65.608C38.8527 64.2099 40.0121 63.0505 41.4102 63.0505C42.8083 63.0505 43.9677 64.2099 43.9677 65.608V74.1332C43.9677 75.088 44.7179 75.8382 45.6728 75.8382H51.5039C56.0393 75.8382 59.7222 72.1553 59.7222 67.62V29.5297C59.7222 24.9602 56.0393 21.2773 51.4698 21.2773ZM48.2303 51.1153H34.5901C33.192 51.1153 32.0325 49.9559 32.0325 48.5578C32.0325 47.1596 33.192 46.0002 34.5901 46.0002H48.2303C49.6284 46.0002 50.7878 47.1596 50.7878 48.5578C50.7878 49.9559 49.6284 51.1153 48.2303 51.1153ZM48.2303 40.8851H34.5901C33.192 40.8851 32.0325 39.7257 32.0325 38.3276C32.0325 36.9295 33.192 35.7701 34.5901 35.7701H48.2303C49.6284 35.7701 50.7878 36.9295 50.7878 38.3276C50.7878 39.7257 49.6284 40.8851 48.2303 40.8851Z" fill="#E41D24"/>
</svg>
