<svg width="38" height="37" viewBox="0 0 38 37" fill="none" xmlns="http://www.w3.org/2000/svg">
<path d="M34.3288 35.0131H3.65232C3.02345 35.0131 2.50195 34.4916 2.50195 33.8628C2.50195 33.2339 3.02345 32.7124 3.65232 32.7124H34.3288C34.9576 32.7124 35.4791 33.2339 35.4791 33.8628C35.4791 34.4916 34.9576 35.0131 34.3288 35.0131Z" fill="#00324D"/>
<path d="M5.20283 35.0286C4.89607 35.0286 4.60459 34.9058 4.38986 34.6911C4.17512 34.4764 4.05246 34.185 4.05246 33.8782L4.03711 10.9629C4.03711 9.56712 4.74262 8.24798 5.90833 7.46574L12.0436 3.37045C13.4701 2.41948 15.3107 2.41948 16.7219 3.37045L22.8571 7.46574C24.0382 8.24798 24.7284 9.55178 24.7284 10.9629L24.7437 33.8475C24.7437 34.4764 24.2376 34.9979 23.5933 34.9979L5.20283 35.0286ZM14.3904 4.95034C14.0223 4.95034 13.6542 5.05764 13.3321 5.27238L7.19678 9.36775C6.65994 9.72053 6.33784 10.3187 6.33784 10.9629L6.3532 32.7278L22.4583 32.6971L22.443 10.9629C22.443 10.3187 22.1209 9.72046 21.5994 9.38301L15.4641 5.28773C15.142 5.05766 14.7585 4.95034 14.3904 4.95034Z" fill="#00324D"/>
<path d="M31.2324 35.0285C30.6035 35.0285 30.082 34.507 30.082 33.8782V27.7275C30.082 27.0986 30.6035 26.5771 31.2324 26.5771C31.8613 26.5771 32.3828 27.0986 32.3828 27.7275V33.8782C32.3828 34.507 31.8766 35.0285 31.2324 35.0285Z" fill="#00324D"/>
<path d="M31.2629 28.8778C28.9315 28.8778 27.0449 26.9912 27.0449 24.6598V21.5922C27.0449 19.2607 28.9315 17.3741 31.2629 17.3741C33.5943 17.3741 35.4809 19.2607 35.4809 21.5922V24.6598C35.4809 26.9912 33.5943 28.8778 31.2629 28.8778ZM31.2629 19.6749C30.2046 19.6749 29.3457 20.5338 29.3457 21.5922V24.6598C29.3457 25.7181 30.2046 26.5771 31.2629 26.5771C32.3213 26.5771 33.1802 25.7181 33.1802 24.6598V21.5922C33.1802 20.5338 32.3213 19.6749 31.2629 19.6749Z" fill="#00324D"/>
<path d="M23.5933 22.7425H5.18748C4.55861 22.7425 4.03711 22.221 4.03711 21.5921C4.03711 20.9633 4.55861 20.4418 5.18748 20.4418H23.5933C24.2222 20.4418 24.7437 20.9633 24.7437 21.5921C24.7437 22.221 24.2222 22.7425 23.5933 22.7425Z" fill="#00324D"/>
<path d="M14.3906 35.0131C13.7617 35.0131 13.2402 34.4916 13.2402 33.8628V28.1109C13.2402 27.4821 13.7617 26.9606 14.3906 26.9606C15.0195 26.9606 15.541 27.4821 15.541 28.1109V33.8628C15.541 34.4916 15.0195 35.0131 14.3906 35.0131Z" fill="#00324D"/>
<path d="M14.3906 17.3741C12.4886 17.3741 10.9395 15.825 10.9395 13.923C10.9395 12.0211 12.4886 10.4719 14.3906 10.4719C16.2925 10.4719 17.8417 12.0211 17.8417 13.923C17.8417 15.825 16.2925 17.3741 14.3906 17.3741ZM14.3906 12.7727C13.7617 12.7727 13.2402 13.2942 13.2402 13.923C13.2402 14.5519 13.7617 15.0734 14.3906 15.0734C15.0194 15.0734 15.5409 14.5519 15.5409 13.923C15.5409 13.2942 15.0194 12.7727 14.3906 12.7727Z" fill="#00324D"/>
</svg>
