<svg width="78" height="79" viewBox="0 0 78 79" fill="none" xmlns="http://www.w3.org/2000/svg">
<path d="M25.9145 19.2815C24.5924 19.2815 23.4961 18.1852 23.4961 16.8631V7.18962C23.4961 5.86757 24.5924 4.77124 25.9145 4.77124C27.2365 4.77124 28.3329 5.86757 28.3329 7.18962V16.8631C28.3329 18.1852 27.2365 19.2815 25.9145 19.2815Z" fill="#00324D"/>
<path d="M51.7104 19.2815C50.3883 19.2815 49.292 18.1852 49.292 16.8631V7.18962C49.292 5.86757 50.3883 4.77124 51.7104 4.77124C53.0324 4.77124 54.1288 5.86757 54.1288 7.18962V16.8631C54.1288 18.1852 53.0324 19.2815 51.7104 19.2815Z" fill="#00324D"/>
<path d="M27.5263 47.4958C27.1071 47.4958 26.6879 47.3991 26.301 47.2379C25.8818 47.0767 25.5593 46.8509 25.2369 46.5607C24.6565 45.948 24.3018 45.1419 24.3018 44.2713C24.3018 43.8521 24.3985 43.4329 24.5597 43.046C24.721 42.659 24.9467 42.3044 25.2369 41.9819C25.5593 41.6917 25.8818 41.466 26.301 41.3047C27.4618 40.821 28.9128 41.0791 29.8157 41.9819C30.3961 42.5946 30.7508 43.4329 30.7508 44.2713C30.7508 44.4648 30.7185 44.6905 30.6863 44.9163C30.654 45.1097 30.5895 45.3032 30.4928 45.4966C30.4283 45.6901 30.3316 45.8836 30.2026 46.077C30.1059 46.2383 29.9446 46.3995 29.8157 46.5607C29.203 47.1411 28.3646 47.4958 27.5263 47.4958Z" fill="#00324D"/>
<path d="M38.8124 47.4958C38.3932 47.4958 37.974 47.3991 37.5871 47.2378C37.1679 47.0766 36.8455 46.8508 36.523 46.5606C35.9426 45.948 35.5879 45.1419 35.5879 44.2712C35.5879 43.8521 35.6846 43.4329 35.8459 43.0459C36.0071 42.659 36.2328 42.3043 36.523 41.9819C36.8455 41.6917 37.1679 41.4659 37.5871 41.3047C38.7479 40.7887 40.1989 41.079 41.1018 41.9819C41.6822 42.5945 42.0369 43.4329 42.0369 44.2712C42.0369 44.4647 42.0047 44.6905 41.9724 44.9162C41.9402 45.1097 41.8757 45.3031 41.7789 45.4966C41.7144 45.69 41.6177 45.8835 41.4887 46.077C41.392 46.2382 41.2308 46.3994 41.1018 46.5606C40.4891 47.141 39.6508 47.4958 38.8124 47.4958Z" fill="#00324D"/>
<path d="M50.0985 47.4958C49.6793 47.4958 49.2602 47.3991 48.8732 47.2378C48.454 47.0766 48.1316 46.8508 47.8091 46.5606C47.6802 46.3994 47.5512 46.2382 47.4222 46.077C47.2932 45.8835 47.1965 45.69 47.132 45.4966C47.0353 45.3031 46.9708 45.1097 46.9385 44.9162C46.9063 44.6905 46.874 44.4647 46.874 44.2712C46.874 43.4329 47.2287 42.5945 47.8091 41.9819C48.1316 41.6917 48.454 41.4659 48.8732 41.3047C50.0663 40.7887 51.4851 41.079 52.3879 41.9819C52.9683 42.5945 53.323 43.4329 53.323 44.2712C53.323 44.4647 53.2908 44.6905 53.2586 44.9162C53.2263 45.1097 53.1618 45.3031 53.0651 45.4966C53.0006 45.69 52.9039 45.8835 52.7749 46.077C52.6781 46.2382 52.5169 46.3994 52.3879 46.5606C51.7753 47.141 50.9369 47.4958 50.0985 47.4958Z" fill="#00324D"/>
<path d="M27.5263 58.7817C27.1071 58.7817 26.6879 58.685 26.301 58.5238C25.914 58.3626 25.5593 58.1368 25.2369 57.8466C24.6565 57.2339 24.3018 56.3956 24.3018 55.5572C24.3018 55.138 24.3985 54.7188 24.5597 54.3319C24.721 53.9127 24.9467 53.5581 25.2369 53.2678C26.4299 52.0748 28.6226 52.0748 29.8157 53.2678C30.3961 53.8805 30.7508 54.7188 30.7508 55.5572C30.7508 56.3956 30.3961 57.2339 29.8157 57.8466C29.203 58.427 28.3646 58.7817 27.5263 58.7817Z" fill="#00324D"/>
<path d="M38.8124 58.7817C37.974 58.7817 37.1357 58.427 36.523 57.8466C35.9426 57.2339 35.5879 56.3956 35.5879 55.5572C35.5879 55.138 35.6846 54.7188 35.8459 54.3319C36.0071 53.9127 36.2328 53.5581 36.523 53.2678C37.7161 52.0748 39.9087 52.0748 41.1018 53.2678C41.392 53.5581 41.6177 53.9127 41.7789 54.3319C41.9402 54.7188 42.0369 55.138 42.0369 55.5572C42.0369 56.3956 41.6822 57.2339 41.1018 57.8466C40.4891 58.427 39.6508 58.7817 38.8124 58.7817Z" fill="#00324D"/>
<path d="M50.0985 58.7817C49.2602 58.7817 48.4218 58.427 47.8091 57.8466C47.5189 57.5564 47.2932 57.2017 47.132 56.7825C46.9708 56.3956 46.874 55.9764 46.874 55.5572C46.874 55.138 46.9708 54.7188 47.132 54.3319C47.2932 53.9127 47.5189 53.558 47.8091 53.2678C48.5508 52.5262 49.6793 52.1714 50.7112 52.3972C50.9369 52.4294 51.1304 52.4939 51.3239 52.5906C51.5173 52.6551 51.7108 52.7519 51.9043 52.8809C52.0655 52.9776 52.2267 53.1389 52.3879 53.2678C52.9683 53.8805 53.323 54.7188 53.323 55.5572C53.323 56.3956 52.9683 57.2339 52.3879 57.8466C51.7753 58.427 50.9369 58.7817 50.0985 58.7817Z" fill="#00324D"/>
<path d="M66.2204 32.4693H11.4037C10.0817 32.4693 8.98535 31.373 8.98535 30.0509C8.98535 28.7289 10.0817 27.6326 11.4037 27.6326H66.2204C67.5424 27.6326 68.6388 28.7289 68.6388 30.0509C68.6388 31.373 67.5424 32.4693 66.2204 32.4693Z" fill="#00324D"/>
<path d="M51.7101 74.0981H25.914C14.1445 74.0981 7.37305 67.3266 7.37305 55.5572V28.1488C7.37305 16.3794 14.1445 9.60791 25.914 9.60791H51.7101C63.4795 9.60791 70.251 16.3794 70.251 28.1488V55.5572C70.251 67.3266 63.4795 74.0981 51.7101 74.0981ZM25.914 14.4447C16.6919 14.4447 12.2098 18.9267 12.2098 28.1488V55.5572C12.2098 64.7793 16.6919 69.2613 25.914 69.2613H51.7101C60.9321 69.2613 65.4142 64.7793 65.4142 55.5572V28.1488C65.4142 18.9267 60.9321 14.4447 51.7101 14.4447H25.914Z" fill="#00324D"/>
</svg>
