<svg width="78" height="79" viewBox="0 0 78 79" fill="none" xmlns="http://www.w3.org/2000/svg">
<path d="M25.9813 74.1655C13.9861 74.1655 4.21582 64.3952 4.21582 52.4C4.21582 42.5975 10.7938 33.9559 20.2416 31.4085C21.4347 31.086 22.66 31.6987 23.1114 32.8595C25.0784 37.793 29.2703 41.5657 34.3972 42.9522C37.2348 43.7261 40.5238 43.7261 43.2969 42.9522C44.4899 42.6298 45.7475 43.2424 46.1989 44.4033C47.1985 46.9506 47.7145 49.6592 47.7145 52.4323C47.7145 58.6234 45.0704 64.5242 40.4593 68.6193C36.5254 72.1663 31.3662 74.1655 25.9813 74.1655ZM19.5967 36.6967C13.3089 39.2763 9.05258 45.4674 9.05258 52.4C9.05258 61.7189 16.6624 69.3287 25.9813 69.3287C30.1731 69.3287 34.1715 67.781 37.267 64.9756C40.8785 61.7834 42.9099 57.2046 42.9099 52.4C42.9099 50.9168 42.7165 49.498 42.3618 48.1115C39.3307 48.5951 36.0417 48.4339 33.1397 47.6278C27.3033 46.0155 22.4021 42.0171 19.5967 36.6967Z" fill="#00324D"/>
<path d="M38.8797 48.3697C36.8805 48.3697 34.9458 48.1118 33.1401 47.5959C26.5943 45.7901 21.1449 40.9534 18.6298 34.6011C17.6302 32.086 17.1143 29.3774 17.1143 26.6043C17.1143 14.6091 26.8845 4.83887 38.8797 4.83887C50.8749 4.83887 60.6451 14.6091 60.6451 26.6043C60.6451 29.3774 60.1292 32.086 59.1296 34.6333C56.6145 40.9534 51.1973 45.8224 44.6193 47.6281C42.8136 48.1118 40.8789 48.3697 38.8797 48.3697ZM38.8797 9.67563C29.5609 9.67563 21.951 17.2855 21.951 26.6043C21.951 28.7647 22.338 30.8607 23.1441 32.8276C25.111 37.7611 29.3029 41.5338 34.4299 42.9203C37.2674 43.6942 40.5564 43.6942 43.3295 42.9203C48.4565 41.5338 52.6806 37.7289 54.6153 32.8276C55.3892 30.8607 55.8084 28.7647 55.8084 26.6043C55.8084 17.2855 48.1985 9.67563 38.8797 9.67563Z" fill="#00324D"/>
<path d="M51.7774 74.1657C46.3924 74.1657 41.2332 72.1665 37.2671 68.5873C36.7511 68.1358 36.4609 67.4587 36.4609 66.7815C36.4609 66.1044 36.7511 65.4272 37.2671 64.9758C40.8463 61.8158 42.91 57.237 42.91 52.4002C42.91 50.2398 42.523 48.1439 41.7169 46.1769C41.4589 45.532 41.4912 44.8226 41.8136 44.21C42.1361 43.5973 42.6842 43.1459 43.3291 42.9524C48.4561 41.5659 52.648 37.7932 54.6149 32.8597C55.0664 31.6989 56.3239 31.1185 57.4847 31.4087C66.9326 33.9883 73.5106 42.5977 73.5106 52.4002C73.5428 64.3954 63.7725 74.1657 51.7774 74.1657ZM42.4908 66.5558C45.2316 68.3615 48.4239 69.3289 51.7774 69.3289C61.0962 69.3289 68.706 61.7191 68.706 52.4002C68.706 45.4675 64.4497 39.2765 58.1619 36.6969C55.7757 41.2434 51.7774 44.8549 47.0051 46.7896C47.4888 48.5953 47.7467 50.4978 47.7467 52.4002C47.7467 57.6239 45.8765 62.6542 42.4908 66.5558Z" fill="#00324D"/>
</svg>
