<svg width="79" height="79" viewBox="0 0 79 79" fill="none" xmlns="http://www.w3.org/2000/svg">
<path d="M39.6087 46.3642C32.7405 46.3642 27.1299 40.7858 27.1299 33.8853C27.1299 26.9849 32.7405 21.4387 39.6087 21.4387C46.4769 21.4387 52.0876 27.0171 52.0876 33.9176C52.0876 40.818 46.4769 46.3642 39.6087 46.3642ZM39.6087 26.2755C35.4169 26.2755 31.9666 29.6935 31.9666 33.9176C31.9666 38.1417 35.3846 41.5597 39.6087 41.5597C43.8328 41.5597 47.2508 38.1417 47.2508 33.9176C47.2508 29.6935 43.8006 26.2755 39.6087 26.2755Z" fill="#00324D"/>
<path d="M39.6091 74.0628C34.8368 74.0628 30.0323 72.2571 26.2919 68.6779C16.7796 59.5203 6.26766 44.9132 10.2338 27.5331C13.813 11.7653 27.5817 4.70361 39.6091 4.70361C39.6091 4.70361 39.6091 4.70361 39.6413 4.70361C51.6688 4.70361 65.4374 11.7653 69.0166 27.5654C72.9505 44.9455 62.4386 59.5203 52.9263 68.6779C49.1859 72.2571 44.3814 74.0628 39.6091 74.0628ZM39.6091 9.54038C30.2258 9.54038 18.1661 14.5384 14.9738 28.5972C11.4914 43.7847 21.0359 56.8762 29.6776 65.1632C35.256 70.5481 43.9944 70.5481 49.5728 65.1632C58.1823 56.8762 67.7268 43.7847 64.3088 28.5972C61.0843 14.5384 48.9924 9.54038 39.6091 9.54038Z" fill="#00324D"/>
</svg>
