<svg width="78" height="79" viewBox="0 0 78 79" fill="none" xmlns="http://www.w3.org/2000/svg">
<path d="M60.7715 20.9614H65.1568C64.5442 20.0908 63.8993 19.2846 63.2221 18.4785L60.7715 20.9614Z" fill="#00324D"/>
<path d="M59.8364 15.0604C59.0303 14.3833 58.2241 13.7384 57.3535 13.1257V17.5111L59.8364 15.0604Z" fill="#00324D"/>
<path d="M63.2539 18.4783L72.7662 8.96599C73.7013 8.03088 73.7013 6.48312 72.7662 5.54801C71.8311 4.6129 70.2833 4.6129 69.3482 5.54801L59.8359 15.0603C61.0613 16.1244 62.1898 17.2852 63.2539 18.4783Z" fill="#00324D"/>
<path d="M57.3533 10.4816C57.3533 9.15957 56.257 8.06323 54.935 8.06323C53.6452 8.06323 52.6133 9.09508 52.5488 10.3526C54.2256 11.1588 55.8378 12.0616 57.3533 13.1257V10.4816Z" fill="#00324D"/>
<path d="M70.251 23.3796C70.251 22.0575 69.1546 20.9612 67.8326 20.9612H65.1562C66.2203 22.4767 67.1554 24.089 67.9293 25.7657C69.2191 25.7012 70.251 24.6694 70.251 23.3796Z" fill="#00324D"/>
<path d="M41.2305 48.3696H42.1978C43.4554 48.3696 44.455 47.241 44.455 45.8545C44.455 44.1133 43.9713 43.8553 42.875 43.4683L41.2305 42.8879V48.3696Z" fill="#00324D"/>
<path d="M67.962 25.7658C67.9298 25.7658 67.8976 25.798 67.8331 25.798H54.935C54.6126 25.798 54.3224 25.7335 53.9999 25.6045C53.4195 25.3466 52.9358 24.8951 52.6779 24.2825C52.5811 23.9923 52.5166 23.7021 52.5166 23.3796V10.4816C52.5166 10.4493 52.5489 10.4171 52.5489 10.3526C48.357 8.38566 43.7137 7.25708 38.8125 7.25708C21.0132 7.25708 6.56738 21.7029 6.56738 39.5022C6.56738 57.3015 21.0132 71.7473 38.8125 71.7473C56.6118 71.7473 71.0576 57.3015 71.0576 39.5022C71.0576 34.6009 69.929 29.9576 67.962 25.7658ZM44.4554 38.9218C46.5191 39.6312 49.2921 41.1467 49.2921 45.8867C49.2921 49.9173 46.0999 53.2386 42.1982 53.2386H41.2309V54.0447C41.2309 55.3668 40.1345 56.4631 38.8125 56.4631C37.4904 56.4631 36.3941 55.3668 36.3941 54.0447V53.2386H36.1361C31.8475 53.2386 28.3328 49.6271 28.3328 45.1773C28.3328 43.823 29.4292 42.7267 30.7512 42.7267C32.0733 42.7267 33.1696 43.823 33.1696 45.1451C33.1696 46.9185 34.4916 48.3696 36.1361 48.3696H36.3941V41.2112L33.1696 40.0826C31.1059 39.3732 28.3328 37.8577 28.3328 33.1176C28.3328 29.087 31.5251 25.7658 35.4267 25.7658H36.3941V24.9919C36.3941 23.6698 37.4904 22.5735 38.8125 22.5735C40.1345 22.5735 41.2309 23.6698 41.2309 24.9919V25.798H41.4888C45.7774 25.798 49.2921 29.4095 49.2921 33.8593C49.2921 35.1813 48.1958 36.2777 46.8738 36.2777C45.5517 36.2777 44.4554 35.1813 44.4554 33.8593C44.4554 32.0858 43.1333 30.6348 41.4888 30.6348H41.2309V37.7932L44.4554 38.9218Z" fill="#00324D"/>
<path d="M33.1689 33.1499C33.1689 34.8911 33.6526 35.1491 34.749 35.536L36.3935 36.1164V30.6348H35.4261C34.2008 30.6348 33.1689 31.7633 33.1689 33.1499Z" fill="#00324D"/>
</svg>
