<svg width="82" height="83" viewBox="0 0 82 83" fill="none" xmlns="http://www.w3.org/2000/svg">
<path d="M59.8777 27.3132C59.639 27.2791 59.4003 27.2791 59.1616 27.3132C53.876 27.1427 49.6816 22.8119 49.6816 17.4923C49.6816 12.0703 54.0806 7.63721 59.5367 7.63721C64.9587 7.63721 69.3917 12.0362 69.3917 17.4923C69.3576 22.8119 65.1633 27.1427 59.8777 27.3132Z" fill="#E41D24"/>
<path d="M70.9952 50.9444C67.1759 53.5019 61.8221 54.4567 56.8775 53.8088C58.1734 51.0126 58.8554 47.9094 58.8895 44.6358C58.8895 41.2257 58.1393 37.9862 56.707 35.1558C61.7539 34.4738 67.1077 35.4286 70.9611 37.9862C76.3489 41.5326 76.3489 47.3638 70.9952 50.9444Z" fill="#E41D24"/>
<path d="M22.06 27.3132C22.2987 27.2791 22.5374 27.2791 22.7761 27.3132C28.0617 27.1427 32.2561 22.8119 32.2561 17.4923C32.2561 12.0362 27.8571 7.63721 22.401 7.63721C16.979 7.63721 12.5801 12.0362 12.5801 17.4923C12.5801 22.8119 16.7744 27.1427 22.06 27.3132Z" fill="#E41D24"/>
<path d="M22.4361 44.6359C22.4361 47.9437 23.1522 51.0809 24.448 53.9113C19.6399 54.4228 14.6271 53.3998 10.9442 50.9786C5.55635 47.3981 5.55635 41.5669 10.9442 37.9863C14.593 35.5311 19.7422 34.5422 24.5844 35.0878C23.1863 37.9522 22.4361 41.1918 22.4361 44.6359Z" fill="#E41D24"/>
<path d="M41.4297 54.9344C41.1569 54.9003 40.85 54.9003 40.5431 54.9344C34.2686 54.7298 29.2559 49.5806 29.2559 43.2379C29.29 36.7588 34.5073 31.5073 41.0205 31.5073C47.4996 31.5073 52.7511 36.7588 52.7511 43.2379C52.717 49.5806 47.7383 54.7298 41.4297 54.9344Z" fill="#E41D24"/>
<path d="M30.3472 61.9934C25.1981 65.4376 25.1981 71.0983 30.3472 74.5083C36.2125 78.4299 45.8289 78.4299 51.6942 74.5083C56.8434 71.0642 56.8434 65.4035 51.6942 61.9934C45.863 58.0719 36.2466 58.0719 30.3472 61.9934Z" fill="#E41D24"/>
</svg>
