<svg width="78" height="79" viewBox="0 0 78 79" fill="none" xmlns="http://www.w3.org/2000/svg">
<path d="M56.6442 25.8625C56.4185 25.8303 56.1928 25.8303 55.9671 25.8625C50.9691 25.7013 47.0029 21.6061 47.0029 16.5759C47.0029 11.4489 51.1625 7.25708 56.3218 7.25708C61.4487 7.25708 65.6406 11.4167 65.6406 16.5759C65.6083 21.6061 61.6422 25.7013 56.6442 25.8625Z" fill="#00324D"/>
<path d="M67.1552 48.2085C63.5438 50.6268 58.4813 51.5297 53.8058 50.917C55.0311 48.2729 55.676 45.3386 55.7082 42.2431C55.7082 39.0186 54.9988 35.9553 53.6445 33.279C58.4168 32.6341 63.4793 33.5369 67.123 35.9553C72.2177 39.3088 72.2177 44.8227 67.1552 48.2085Z" fill="#00324D"/>
<path d="M20.8841 25.8625C21.1098 25.8303 21.3355 25.8303 21.5612 25.8625C26.5592 25.7013 30.5253 21.6061 30.5253 16.5759C30.5253 11.4167 26.3657 7.25708 21.2065 7.25708C16.0795 7.25708 11.9199 11.4167 11.9199 16.5759C11.9199 21.6061 15.8861 25.7013 20.8841 25.8625Z" fill="#00324D"/>
<path d="M21.2384 42.2432C21.2384 45.371 21.9156 48.3376 23.1409 51.0139C18.5943 51.4976 13.8543 50.5302 10.3718 48.2408C5.2771 44.8551 5.2771 39.3412 10.3718 35.9554C13.8221 33.6338 18.6911 32.6987 23.2699 33.2146C21.9478 35.9232 21.2384 38.9865 21.2384 42.2432Z" fill="#00324D"/>
<path d="M39.199 51.981C38.941 51.9487 38.6508 51.9487 38.3606 51.981C32.4275 51.7875 27.6875 46.9185 27.6875 40.9209C27.7197 34.7944 32.6532 29.8286 38.8121 29.8286C44.9386 29.8286 49.9044 34.7944 49.9044 40.9209C49.8721 46.9185 45.1643 51.7875 39.199 51.981Z" fill="#00324D"/>
<path d="M28.7191 58.6557C23.8501 61.9124 23.8501 67.2651 28.7191 70.4896C34.2653 74.1978 43.3584 74.1978 48.9046 70.4896C53.7736 67.2328 53.7736 61.8802 48.9046 58.6557C43.3907 54.9475 34.2975 54.9475 28.7191 58.6557Z" fill="#00324D"/>
</svg>
