<svg width="156" height="119" viewBox="0 0 156 119" fill="none" xmlns="http://www.w3.org/2000/svg">
<path fill-rule="evenodd" clip-rule="evenodd" d="M69.0439 1.92311C61.2774 4.48354 50.0399 15.3551 47.9578 22.3209L46.51 27.1666L42.1315 25.598C36.5988 23.6168 27.3929 23.5034 21.2717 25.3422C15.2708 27.1449 6.48257 34.8564 3.298 41.1163C-1.59319 50.7282 -0.807279 64.2796 5.01184 70.6795C8.48406 74.4972 15.3442 74.3814 19.0343 70.4442C21.5437 67.7667 21.723 66.7821 20.9732 59.7681C20.2041 52.567 20.3642 51.7839 23.3406 48.2389C25.8825 45.2091 27.4567 44.4357 31.0757 44.4357C40.5536 44.4357 45.2547 54.7775 39.125 62.1403C34.5419 67.6461 32.3358 72.9226 32.3358 78.3837C32.3358 85.2988 36.3364 93.2757 40.7173 95.0953C49.2468 98.6379 57.4706 90.2411 53.9105 81.6247C52.6986 78.6914 52.8045 77.7973 54.6062 75.8016C56.6089 73.5838 56.6125 73.398 54.6651 72.6487C53.3545 72.1443 51.6575 72.7923 50.0399 74.414C47.7592 76.7017 47.6401 77.4088 48.9363 81.0021C50.8259 86.24 50.7705 87.3187 48.4982 89.598C43.4903 94.6175 37.162 88.1537 37.1548 78.0121C37.1512 73.3968 37.9335 71.3443 41.4611 66.7109C46.6219 59.9322 47.6642 54.9296 45.1632 48.9291C40.0481 36.6554 23.0313 36.7339 17.5949 49.0546C15.5573 53.6711 15.4141 55.1214 16.5995 59.0888C18.0955 64.0962 17.0424 67.7112 13.7147 68.9914C8.75727 70.8991 4.65439 64.7056 4.65439 55.3169C4.65439 44.5081 9.94035 35.917 19.6987 30.8613C28.5483 26.2774 44.3941 28.3346 45.3269 34.1891C46.4546 41.2635 48.7389 43.9108 55.6569 46.1575C57.6824 46.8151 57.8593 47.889 57.3611 56.5235C56.8616 65.1798 57.0229 66.1547 58.9582 66.1547C61.6445 66.1547 62.9587 60.0915 62.1355 51.4956C61.6361 46.289 61.9562 45.0149 64.3681 42.5968C65.9784 40.9824 67.5394 37.5459 68.0136 34.5704C69.8189 23.2536 81.4199 18.6492 88.995 26.2436C91.6933 28.9488 92.5129 30.8794 92.5129 34.527C92.5129 40.5166 89.4126 44.595 82.1986 48.0965C74.4827 51.8419 70.4785 58.284 69.8647 67.9417C69.311 76.6546 70.6061 79.822 75.8282 82.5296C82.7666 86.1265 91.3094 80.8464 91.3094 72.9612C91.3094 69.1929 91.9136 68.4569 97.6917 65.187C104.42 61.3801 109.531 55.662 112.438 48.6878C116.058 39.999 127.541 38.9251 131.648 46.8899C133.784 51.0274 133.871 53.0099 132.097 56.9157C130.566 60.2821 127.848 61.8628 120.238 63.8066C107.329 67.1067 98.917 84.8041 106.842 91.9943C110.787 95.5731 115.777 95.6383 119.897 92.162C121.96 90.4221 123.819 87.852 124.028 86.4511C124.313 84.5338 125.806 83.5504 130.073 82.4693C133.189 81.679 137.979 79.4757 140.718 77.5729C145.856 74.0037 152.644 63.7716 152.697 59.5183C152.721 57.5178 152.926 57.414 153.894 58.915C154.73 60.2121 155.066 58.95 155.079 54.4614C155.089 51.0165 154.617 47.8999 154.03 47.5367C153.443 47.1735 152.617 45.0245 152.193 42.7609C151.211 37.5145 146.835 31.724 145.138 33.4253C144.307 34.2579 144.744 36.5903 146.497 40.6735C153.38 56.713 145.138 73.7986 128.264 78.4694C122.928 79.9463 121.683 80.8693 119.86 84.6931C117.354 89.9503 115.131 91.1099 111.091 89.2649C107.688 87.7108 107.267 83.904 109.819 77.7816C111.933 72.7078 116.82 68.8515 122.422 67.8355C132.362 66.0328 137.445 60.7117 137.445 52.1097C137.445 42.6813 130.273 36.4238 120.705 37.5049L115.597 38.0817L115.099 32.5107C114.825 29.4471 114.75 26.7407 114.931 26.497C116.106 24.9199 126.352 25.1818 131.026 26.9072C138.028 29.4918 139.682 29.6704 140.303 27.9099C141.341 24.9694 130.949 21.0901 121.785 20.996L113.148 20.9067L109.589 15.9813C99.4886 2.00274 84.5334 -3.18207 69.0439 1.92311ZM67.8403 7.49283C64.5306 9.06142 60.3651 11.9066 58.5839 13.8167C54.0393 18.6854 50.4467 27.233 50.4154 33.2468C50.3938 37.3939 50.9606 38.7224 53.4472 40.3561C57.4742 43.001 62.0633 41.0825 63.0683 36.3321C63.4594 34.4847 64.0155 31.7928 64.3043 30.3509C65.7678 23.0557 75.5851 16.9273 83.443 18.4054C99.4634 21.4183 102.209 42.5232 87.5724 50.1478C84.6634 51.6621 80.5978 54.7088 78.5374 56.9157C72.2477 63.6558 71.9239 76.8682 78.0018 78.8024C83.5706 80.5737 87.6987 76.4157 87.6987 69.0361C87.6987 66.9076 88.8048 65.4488 91.526 63.9864C97.8482 60.591 105.975 52.5876 108.314 47.4522C111.331 40.8303 111.217 29.7066 108.061 22.7167C100.981 7.03432 83.0928 0.264013 67.8403 7.49283ZM0.201289 55.2952C0.201289 58.9452 0.426351 60.439 0.701962 58.6134C0.977573 56.7878 0.977573 53.8026 0.701962 51.977C0.426351 50.1514 0.201289 51.6452 0.201289 55.2952ZM76.093 89.0248C72.3355 90.6115 69.6456 95.0651 69.6456 99.6973C69.6456 105.137 75.1711 110.799 80.4775 110.799C85.8886 110.799 91.3094 105.143 91.3094 99.497C91.3094 91.7651 83.0555 86.0843 76.093 89.0248ZM75.6633 95.1134C72.7664 98.0177 72.6533 99.7468 75.1302 103.291C77.3194 106.425 83.0158 106.912 85.2953 104.159C87.4965 101.5 87.1246 96.1463 84.6105 94.3026C81.5174 92.0353 78.4568 92.3129 75.6633 95.1134ZM47.326 100.489C42.4552 105.371 43.4265 113.243 49.2721 116.274C54.0586 118.756 56.9651 118.479 60.7924 115.179C63.3186 113 64.1093 111.237 64.1093 107.783C64.1093 98.866 53.5302 94.2688 47.326 100.489ZM102.037 99.0735C99.4465 101.067 97.3271 105.263 97.3271 108.399C97.3271 112.065 103.667 118.039 107.557 118.039C112.099 118.039 117.787 112.022 117.787 107.217C117.787 99.7685 107.826 94.6175 102.037 99.0735ZM48.9688 105.365C47.8338 107.862 47.9807 108.799 49.8341 110.851C52.9657 114.321 57.8377 113.555 59.3 109.363C60.7611 105.172 58.561 102.353 53.8263 102.353C51.2748 102.353 49.9701 103.162 48.9688 105.365ZM103.585 103.801C100.21 107.186 102.753 113.213 107.557 113.213C108.947 113.213 110.735 112.561 111.529 111.765C112.323 110.968 112.973 109.176 112.973 107.783C112.973 106.389 112.323 104.597 111.529 103.801C110.735 103.005 108.947 102.353 107.557 102.353C106.167 102.353 104.38 103.005 103.585 103.801Z" fill="#00324D"/>
</svg>
