<svg width="83" height="83" viewBox="0 0 83 83" fill="none" xmlns="http://www.w3.org/2000/svg">
<path d="M53.4189 18.5833L58.2271 28.1997C58.875 29.5296 60.6141 30.7913 62.0805 31.0641L70.7761 32.4963C76.3345 33.4171 77.6303 37.4409 73.6405 41.4648L66.8545 48.2508C65.7292 49.3761 65.0813 51.5926 65.4564 53.1954L67.4001 61.5841C68.9347 68.1996 65.3882 70.7912 59.557 67.313L51.407 62.4707C49.9407 61.5841 47.4854 61.5841 46.0191 62.4707L37.8691 67.313C32.0379 70.7571 28.4914 68.1996 30.026 61.5841L31.9697 53.1954C32.2766 51.5585 31.6287 49.342 30.5034 48.2167L23.7174 41.4307C19.7276 37.4409 21.0234 33.4171 26.5818 32.4622L35.2774 31.03C36.7438 30.7913 38.4829 29.4955 39.1308 28.1656L43.939 18.5492C46.5647 13.3659 50.7932 13.3659 53.4189 18.5833Z" fill="#E41D24"/>
<path d="M28.219 20.4246H7.75871C6.36059 20.4246 5.20117 19.2652 5.20117 17.8671C5.20117 16.469 6.36059 15.3096 7.75871 15.3096H28.219C29.6171 15.3096 30.7766 16.469 30.7766 17.8671C30.7766 19.2652 29.6171 20.4246 28.219 20.4246Z" fill="#E41D24"/>
<path d="M17.9889 68.1654H7.75871C6.36059 68.1654 5.20117 67.006 5.20117 65.6078C5.20117 64.2097 6.36059 63.0503 7.75871 63.0503H17.9889C19.387 63.0503 20.5464 64.2097 20.5464 65.6078C20.5464 67.006 19.387 68.1654 17.9889 68.1654Z" fill="#E41D24"/>
<path d="M11.1688 44.2953H7.75871C6.36059 44.2953 5.20117 43.1358 5.20117 41.7377C5.20117 40.3396 6.36059 39.1802 7.75871 39.1802H11.1688C12.5669 39.1802 13.7263 40.3396 13.7263 41.7377C13.7263 43.1358 12.5669 44.2953 11.1688 44.2953Z" fill="#E41D24"/>
</svg>
