<svg width="259" height="259" viewBox="0 0 259 259" fill="none" xmlns="http://www.w3.org/2000/svg">
<path d="M129.161 0.777344C57.9386 0.777344 0.205078 58.5109 0.205078 129.733C0.205078 200.955 57.9386 258.689 129.161 258.689C194.671 258.689 249.657 209.582 257.317 145.053C258.143 137.973 253.1 131.384 246.021 130.533C238.954 129.708 232.352 134.749 231.526 141.829C225.401 193.411 181.569 232.898 129.161 232.898C72.1883 232.898 25.9963 186.706 25.9963 129.733C25.9963 72.7605 72.1883 26.5685 129.161 26.5685C141.064 26.5685 152.85 28.722 163.824 32.6165C170.53 34.9893 177.558 31.2624 179.944 24.5567C182.317 17.8381 178.989 10.4105 172.284 8.02481C158.563 3.16318 144.004 0.777344 129.161 0.777344ZM245.221 26.5685C241.92 26.5685 238.464 27.7292 235.949 30.1922L123.513 141.017C120.199 144.279 116.859 143.648 114.254 139.805L101.358 120.861C97.412 115.045 89.1331 113.356 83.2269 117.237C77.3079 121.119 75.6444 129.153 79.5904 134.969L92.486 153.912C104.105 171.051 126.84 173.32 141.657 158.748L254.493 48.3361C259.522 43.3842 259.522 35.1442 254.493 30.1922C251.979 27.7163 248.523 26.5685 245.221 26.5685Z" fill="#00324D"/>
</svg>
