<svg width="216" height="184" viewBox="0 0 216 184" fill="none" xmlns="http://www.w3.org/2000/svg">
<path d="M190.746 7.62561C187.66 7.59201 190.816 5.92322 197.758 3.91562C214.23 -0.84718 222.104 -0.785581 207.576 3.99402C201.405 6.02402 193.831 7.65921 190.746 7.62561Z" fill="white"/>
<path d="M31.1729 24.9156C30.5782 24.9156 29.5347 21.1356 28.8559 16.5156C28.1771 11.8956 28.6624 8.11563 29.9387 8.11563C31.215 8.11563 32.2585 11.8956 32.2585 16.5156C32.2585 21.1356 31.7704 24.9156 31.1729 24.9156Z" fill="white"/>
<path d="M95.6983 12.9232C92.8988 15.7176 46.7523 13.808 39.5545 10.5992C35.1112 8.61681 36.4212 8.32562 44.8814 9.41202C51.0525 10.2044 65.4651 10.868 76.907 10.8848C88.3489 10.9016 96.8063 11.82 95.6983 12.9232Z" fill="white"/>
<path d="M212.401 28.41C211.069 58.1656 209.84 61.0328 209.4 35.4156C209.167 21.942 209.927 10.9128 211.083 10.91C212.238 10.9072 212.833 18.7836 212.401 28.41Z" fill="white"/>
<path d="M111.965 31.7672C108.31 36.7568 107.996 36.2528 107.996 25.4504C107.996 18.9964 109.219 13.7156 110.714 13.7156C112.206 13.7156 112.655 15.7316 111.707 18.1984C110.759 20.6624 111.323 23.5072 112.958 24.5152C114.964 25.7528 114.641 28.116 111.965 31.7672Z" fill="white"/>
<path d="M53.8099 22.642C52.9151 24.8736 52.2503 24.21 52.1157 20.948C51.9951 17.9968 52.657 16.3448 53.5883 17.2744C54.5196 18.204 54.6206 20.6204 53.8099 22.642Z" fill="white"/>
<path d="M140.897 21.0068C139.965 21.9364 137.545 22.0372 135.522 21.228C133.284 20.3348 133.948 19.6712 137.216 19.5368C140.173 19.4164 141.828 20.0772 140.897 21.0068Z" fill="white"/>
<path d="M123.328 26.618C121.053 26.9512 119.901 26.0748 120.77 24.6692C121.64 23.2636 124.38 22.1156 126.863 22.1156C132.178 22.1156 129.337 25.7388 123.328 26.618Z" fill="white"/>
<path d="M160.591 26.9204C156.347 27.5616 149.407 27.5616 145.163 26.9204C140.919 26.2792 144.392 25.7556 152.877 25.7556C161.363 25.7556 164.835 26.2792 160.591 26.9204Z" fill="white"/>
<path d="M172.513 31.9156C170.97 30.9636 169.708 29.0008 169.708 27.5504C169.708 26.1 170.97 24.9156 172.513 24.9156C174.056 24.9156 175.318 26.8812 175.318 29.2808C175.318 31.6804 174.056 32.8676 172.513 31.9156Z" fill="white"/>
<path d="M13.3242 39.6576C24.7773 38.756 26.6764 37.7452 26.8447 32.4616C27.0326 26.5844 27.1392 26.5592 29.229 31.91C31.2795 37.1516 30.0368 72.5324 27.7114 75.0832C27.128 75.7244 26.6483 68.478 26.6483 58.9832V41.7156L13.3242 41.2116L0 40.7076L13.3242 39.6576Z" fill="white"/>
<path d="M74.3347 90.2368C74.3347 87.6636 76.4245 83.2536 78.9772 80.4368C84.6098 74.2236 85.5551 74.092 85.5551 79.5156C85.5551 81.8256 83.6617 83.7156 81.3475 83.7156C78.9323 83.7156 77.1398 86.2412 77.1398 89.6376C77.1398 95.1228 78.2282 95.4392 91.8665 93.9328C116.492 91.214 151.66 89.2568 148.521 90.78C143.082 93.4204 57.5042 99.4041 57.5042 97.1445C57.5042 95.9181 61.2911 94.9156 65.9195 94.9156C71.914 94.9156 74.3347 93.5688 74.3347 90.2368Z" fill="white"/>
<path d="M53.838 88.5624C53.1255 91.2868 52.4972 89.7356 52.4411 85.1156C52.385 80.4956 52.9656 78.2669 53.7342 80.1625C54.5028 82.0581 54.5505 85.838 53.838 88.5624Z" fill="white"/>
<path d="M108.189 82.1952C106.753 83.0828 104.916 82.7356 104.105 81.428C103.294 80.1204 104.47 79.048 106.717 79.048C111.446 79.048 111.858 79.9328 108.189 82.1952Z" fill="white"/>
<path d="M171.811 88.4448C169.113 89.1504 164.692 89.1504 161.994 88.4448C159.295 87.742 161.503 87.1652 166.903 87.1652C172.302 87.1652 174.51 87.742 171.811 88.4448Z" fill="white"/>
<path d="M192.85 93.9693C190.922 94.7477 187.767 94.7477 185.837 93.9693C183.91 93.1937 185.486 92.5581 189.343 92.5581C193.2 92.5581 194.779 93.1937 192.85 93.9693Z" fill="white"/>
<path d="M37.1674 100.236C26.5585 100.068 22.1938 99.2388 26.1125 98.1356C34.9794 95.6436 54.6992 95.8369 54.6992 98.4157C54.6992 99.5693 46.8113 100.39 37.1674 100.236Z" fill="white"/>
<path d="M133.996 99.5525C132.097 100.32 128.31 100.367 125.581 99.6561C122.851 98.9449 124.406 98.3177 129.034 98.2617C133.662 98.2057 135.895 98.7853 133.996 99.5525Z" fill="white"/>
<path d="M69.2491 137.459C54.8787 121.782 43.9108 107.686 44.8701 106.135C45.8295 104.584 48.1184 103.335 49.9558 103.358C51.953 103.383 51.6023 104.472 49.089 106.065C45.6584 108.238 48.023 111.973 61.9082 126.323C71.2744 135.997 88.8174 155.256 100.893 169.116C125.452 197.3 109.064 180.906 69.2491 137.459Z" fill="white"/>
<path d="M72.2309 105.292C68.7582 105.959 63.0807 105.959 59.6081 105.292C56.1354 104.623 58.9769 104.077 65.9195 104.077C72.8621 104.077 75.7036 104.623 72.2309 105.292Z" fill="white"/>
</svg>
