<svg width="191" height="106" viewBox="0 0 191 106" fill="none" xmlns="http://www.w3.org/2000/svg">
<path d="M166.052 7.62561C162.966 7.59201 166.122 5.92322 173.065 3.91562C189.536 -0.84718 197.41 -0.785581 182.882 3.99402C176.711 6.02402 169.137 7.65921 166.052 7.62561Z" fill="white"/>
<path d="M71.0044 12.9232C68.2049 15.7176 22.0584 13.808 14.8606 10.5992C10.4173 8.61681 11.7273 8.32562 20.1875 9.41202C26.3586 10.2044 40.7712 10.868 52.2131 10.8848C63.655 10.9016 72.1124 11.82 71.0044 12.9232Z" fill="white"/>
<path d="M187.707 28.41C186.375 58.1656 185.146 61.0328 184.706 35.4156C184.473 21.942 185.233 10.9128 186.389 10.91C187.544 10.9072 188.139 18.7836 187.707 28.41Z" fill="white"/>
<path d="M87.2711 31.7672C83.616 36.7568 83.3019 36.2528 83.3019 25.4504C83.3019 18.9964 84.5249 13.7156 86.02 13.7156C87.5123 13.7156 87.9611 15.7316 87.013 18.1984C86.0649 20.6624 86.6287 23.5072 88.2641 24.5152C90.2697 25.7528 89.9471 28.116 87.2711 31.7672Z" fill="white"/>
<path d="M29.116 22.642C28.2212 24.8736 27.5564 24.21 27.4218 20.948C27.3011 17.9968 27.9631 16.3448 28.8944 17.2744C29.8257 18.204 29.9267 20.6204 29.116 22.642Z" fill="white"/>
<path d="M116.203 21.0068C115.271 21.9364 112.851 22.0372 110.828 21.228C108.59 20.3348 109.255 19.6712 112.522 19.5368C115.479 19.4164 117.134 20.0772 116.203 21.0068Z" fill="white"/>
<path d="M98.6345 26.618C96.3595 26.9512 95.2066 26.0748 96.0762 24.6692C96.9458 23.2636 99.6864 22.1156 102.169 22.1156C107.484 22.1156 104.643 25.7388 98.6345 26.618Z" fill="white"/>
<path d="M135.897 26.9204C131.653 27.5616 124.713 27.5616 120.469 26.9204C116.225 26.2792 119.698 25.7556 128.183 25.7556C136.669 25.7556 140.141 26.2792 135.897 26.9204Z" fill="white"/>
<path d="M147.819 31.9156C146.276 30.9636 145.014 29.0008 145.014 27.5504C145.014 26.1 146.276 24.9156 147.819 24.9156C149.362 24.9156 150.624 26.8812 150.624 29.2808C150.624 31.6804 149.362 32.8676 147.819 31.9156Z" fill="white"/>
<path d="M49.6408 90.2368C49.6408 87.6636 51.7306 83.2536 54.2833 80.4368C59.9159 74.2236 60.8612 74.092 60.8612 79.5156C60.8612 81.8256 58.9678 83.7156 56.6536 83.7156C54.2384 83.7156 52.4459 86.2412 52.4459 89.6376C52.4459 95.1228 53.5343 95.4392 67.1726 93.9328C91.7985 91.214 126.966 89.2568 123.827 90.78C118.388 93.4204 32.8103 99.4041 32.8103 97.1445C32.8103 95.9181 36.5972 94.9156 41.2256 94.9156C47.2201 94.9156 49.6408 93.5688 49.6408 90.2368Z" fill="white"/>
<path d="M29.1441 88.5624C28.4316 91.2868 27.8033 89.7356 27.7472 85.1156C27.6911 80.4956 28.2717 78.2669 29.0403 80.1625C29.8089 82.0581 29.8566 85.838 29.1441 88.5624Z" fill="white"/>
<path d="M83.4954 82.1952C82.0592 83.0828 80.2219 82.7356 79.4112 81.428C78.6005 80.1204 79.7759 79.048 82.0227 79.048C86.7521 79.048 87.1645 79.9328 83.4954 82.1952Z" fill="white"/>
<path d="M147.118 88.4448C144.419 89.1504 139.998 89.1504 137.3 88.4448C134.601 87.742 136.809 87.1652 142.209 87.1652C147.608 87.1652 149.816 87.742 147.118 88.4448Z" fill="white"/>
<path d="M168.156 93.9693C166.229 94.7477 163.073 94.7477 161.143 93.9693C159.216 93.1937 160.792 92.5581 164.649 92.5581C168.506 92.5581 170.086 93.1937 168.156 93.9693Z" fill="white"/>
<path d="M12.4735 100.236C1.86464 100.068 -2.50007 99.2388 1.41863 98.1356C10.2855 95.6436 30.0052 95.8369 30.0052 98.4157C30.0052 99.5693 22.1174 100.39 12.4735 100.236Z" fill="white"/>
<path d="M109.302 99.5525C107.403 100.32 103.616 100.367 100.887 99.6561C98.1576 98.9449 99.7116 98.3177 104.34 98.2617C108.968 98.2057 111.201 98.7853 109.302 99.5525Z" fill="white"/>
<path d="M47.537 105.292C44.0643 105.959 38.3868 105.959 34.9142 105.292C31.4415 104.623 34.283 104.077 41.2256 104.077C48.1682 104.077 51.0097 104.623 47.537 105.292Z" fill="white"/>
</svg>
