<svg width="653" height="453" viewBox="0 0 653 453" fill="none" xmlns="http://www.w3.org/2000/svg">
<path fill-rule="evenodd" clip-rule="evenodd" d="M232.822 3.2789C232.822 5.0821 230.615 9.1785 227.913 12.3789C223.024 18.1777 223.027 18.1805 229.215 12.9557L235.425 7.7141L236.228 73.7997L237.03 139.885L194.954 170.738C171.812 187.709 148.459 205.495 143.06 210.266L133.242 218.938L142.339 212.892C147.343 209.566 152.706 207.631 154.26 208.589C155.814 209.546 157.085 208.608 157.085 206.5C157.085 202.233 235.005 143.755 239.075 144.97C240.494 145.393 240.856 144.447 239.877 142.87C238.901 141.291 239.754 140.056 241.773 140.126C246.879 140.302 271.541 153.717 267.044 153.874C265.041 153.944 259.557 152.018 254.862 149.593C250.169 147.171 245.796 145.715 245.151 146.362C242.71 148.798 283.692 164.878 288.068 163.204C290.587 162.238 291.931 162.607 291.056 164.024C290.181 165.441 292.812 166.762 296.907 166.964C301.457 167.185 291.6 161.199 271.552 151.564L238.755 135.8L238.592 71.8621L238.432 7.9269L255.964 22.9573C280.164 43.7053 288.413 48.9525 267.886 30.5425C258.629 22.2405 247.487 11.9729 243.125 7.7225C234.309 -0.862296 232.822 -1.50349 232.822 3.2789ZM218.323 24.5001C205.585 39.5417 192.547 56.8457 195.102 55.3169C198.477 53.3009 225.386 19.6001 223.624 19.6001C222.99 19.6001 220.603 21.8037 218.323 24.5001ZM373.27 68.4489C379.099 76.5549 381.699 82.9053 380.717 86.6489C379.89 89.8129 380.356 92.4001 381.755 92.4001C383.152 92.4001 384.297 89.0569 384.297 84.9717C384.297 77.7113 384.412 77.6637 389.34 82.8717C392.115 85.8033 402.53 95.7517 412.482 104.981C422.438 114.209 416.084 106.963 398.367 88.8805C380.65 70.7953 365.741 56.0001 365.233 56.0001C364.729 56.0001 368.344 61.6029 373.27 68.4489ZM187.582 63.7001C184.095 68.1409 184.193 68.2389 188.642 64.7585C193.315 61.0989 194.799 58.8001 192.491 58.8001C191.91 58.8001 189.7 61.0065 187.582 63.7001ZM179.167 74.9001C175.68 79.3409 175.778 79.4389 180.227 75.9585C184.9 72.2989 186.384 70.0001 184.075 70.0001C183.495 70.0001 181.284 72.2065 179.167 74.9001ZM167.946 88.9001C164.46 93.3409 164.558 93.4389 169.007 89.9585C171.705 87.8445 173.915 85.6381 173.915 85.0585C173.915 82.7541 171.612 84.2353 167.946 88.9001ZM345.026 95.0349C345.026 96.4853 346.078 98.3193 347.362 99.1117C348.65 99.9041 349.702 98.7197 349.702 96.4769C349.702 94.2341 348.65 92.4001 347.362 92.4001C346.078 92.4001 345.026 93.5845 345.026 95.0349ZM387.865 103.6C387.865 110.53 388.412 113.364 389.082 109.9C389.75 106.437 389.75 100.764 389.082 97.3001C388.412 93.8365 387.865 96.6701 387.865 103.6ZM378.687 98.1653C378.687 99.7949 379.949 100.352 381.492 99.4001C383.035 98.4481 384.297 97.1153 384.297 96.4349C384.297 95.7545 383.035 95.2001 381.492 95.2001C379.949 95.2001 378.687 96.5357 378.687 98.1653ZM354.142 110.208C350.672 111.925 347.831 114.333 347.831 115.562C347.831 117.695 352.728 115.523 361.856 109.337C367.332 105.627 362.249 106.201 354.142 110.208ZM401.127 109.035C401.127 110.485 402.376 112.44 403.902 113.381C405.489 114.361 405.96 113.238 405.004 110.746C403.139 105.896 401.127 105.009 401.127 109.035ZM409.543 116.452C409.543 118.048 428.477 137.421 451.619 159.508L493.695 199.662V246.831V294L501.409 293.619C508.113 293.286 508.29 293.079 502.75 292.015C496.413 290.802 496.382 290.55 496.775 244.667C496.994 219.296 496.391 197.756 495.434 196.801C494.478 195.849 493.569 191.181 493.415 186.432C493.171 178.884 492.907 178.606 491.311 184.229C489.558 190.408 488.862 190.101 473.358 176.305C464.489 168.412 457.229 160.087 457.229 157.811C457.229 155.535 455.967 154.448 454.424 155.4C452.881 156.352 451.619 154.955 451.619 152.298C451.619 149.641 450.741 148.344 449.667 149.414C448.595 150.486 439.128 142.856 428.628 132.457C418.132 122.058 409.543 114.856 409.543 116.452ZM343.216 158.2C343.208 172.06 343.682 178.083 344.271 171.584C344.857 165.085 344.866 153.745 344.285 146.384C343.707 139.023 343.225 144.34 343.216 158.2ZM387.865 148.4C387.865 155.33 388.412 158.164 389.082 154.7C389.75 151.236 389.75 145.564 389.082 142.1C388.412 138.637 387.865 141.47 387.865 148.4ZM233.849 158.167C232.968 160.457 233.54 167.07 235.12 172.867L237.992 183.4L237.51 168.711C237.002 153.149 236.421 151.477 233.849 158.167ZM274.898 158.2C278.755 160.401 283.173 162.201 284.716 162.201C286.259 162.201 284.366 160.401 280.509 158.2C276.652 155.999 272.234 154.199 270.691 154.199C269.148 154.199 271.042 155.999 274.898 158.2ZM141.48 168.7L133.242 177.8L142.358 169.577C147.374 165.055 151.475 160.958 151.475 160.477C151.475 158.312 149.161 160.219 141.48 168.7ZM449.941 204.4C449.941 228.27 450.373 238.036 450.898 226.1C451.425 214.164 451.425 194.636 450.898 182.7C450.373 170.764 449.941 180.53 449.941 204.4ZM388.21 203C388.213 224.56 388.653 233.01 389.186 221.777C389.722 210.546 389.716 192.906 389.18 182.577C388.642 172.25 388.204 181.44 388.21 203ZM136.476 180.712C129 187.58 120.796 193.22 118.243 193.242C115.143 193.273 114.692 193.976 116.885 195.367C118.686 196.512 120.695 201.849 121.345 207.225L122.526 217L122.975 206.601C123.334 198.274 125.8 193.981 135.346 185.063L147.267 173.925L149.001 182.862C150.628 191.246 150.759 191.061 151.105 179.9C151.309 173.354 151.161 168.051 150.773 168.112C150.386 168.174 143.954 173.844 136.476 180.712ZM585.738 175.512C587.761 176.322 590.182 176.221 591.113 175.291C592.044 174.362 590.389 173.701 587.433 173.821C584.165 173.956 583.5 174.619 585.738 175.512ZM574.518 178.312C576.54 179.122 578.961 179.021 579.893 178.091C580.824 177.162 579.169 176.501 576.212 176.621C572.944 176.756 572.28 177.419 574.518 178.312ZM546.992 183.4C540.049 185.408 536.262 187.149 538.576 187.273C540.891 187.393 549.096 185.738 556.81 183.596C564.523 181.454 568.31 179.712 565.225 179.727C562.139 179.738 553.934 181.392 546.992 183.4ZM341.427 186.9C340.807 188.054 341.236 192.15 342.383 196C344.33 202.544 344.484 202.406 344.745 193.9C345.014 185.122 343.777 182.512 341.427 186.9ZM133.127 193.388C132.108 195.028 131.878 196.974 132.613 197.708C133.348 198.442 134.698 197.098 135.612 194.72C137.508 189.787 135.893 188.919 133.127 193.388ZM334.248 196C334.248 199.85 334.885 201.426 335.662 199.5C336.442 197.576 336.442 194.426 335.662 192.5C334.885 190.576 334.248 192.15 334.248 196ZM518.416 192.312C520.439 193.122 522.86 193.021 523.791 192.091C524.722 191.162 523.067 190.501 520.111 190.621C516.843 190.756 516.178 191.419 518.416 192.312ZM240.536 195.129C234.926 196.594 233.849 201.58 239.134 201.639C241.064 201.659 245.796 202.325 249.653 203.118C256.626 204.548 256.629 204.543 250.174 201.704C246.604 200.133 244.469 197.577 245.431 196.023C246.393 194.471 246.789 193.346 246.312 193.525C245.835 193.704 243.238 194.426 240.536 195.129ZM115.452 204.4C115.452 208.25 116.089 209.826 116.866 207.9C117.645 205.976 117.645 202.826 116.866 200.9C116.089 198.976 115.452 200.55 115.452 204.4ZM625.756 203.232C625.89 206.494 626.555 207.158 627.45 204.926C628.261 202.905 628.16 200.488 627.228 199.559C626.297 198.629 625.635 200.281 625.756 203.232ZM239.428 228.2C239.42 242.06 239.894 248.083 240.483 241.584C241.069 235.085 241.078 223.745 240.497 216.384C239.919 209.023 239.437 214.34 239.428 228.2ZM262.276 207.2C265.361 208.524 269.779 209.605 272.093 209.605C274.744 209.605 274.228 208.718 270.691 207.2C267.605 205.876 263.187 204.795 260.873 204.795C258.222 204.795 258.738 205.682 262.276 207.2ZM625.859 256.9C625.68 283.464 626.485 305.2 627.643 305.2C629.641 305.2 629.189 221.746 627.144 212.8C626.617 210.49 626.039 230.336 625.859 256.9ZM368.269 233.8C368.291 241.5 368.835 244.317 369.48 240.061C370.123 235.805 370.106 229.505 369.441 226.061C368.776 222.617 368.249 226.1 368.269 233.8ZM342.442 228.432C342.577 231.694 343.242 232.358 344.136 230.126C344.947 228.105 344.846 225.689 343.915 224.759C342.984 223.829 342.322 225.481 342.442 228.432ZM541.382 229.6C534.543 231.787 534.579 231.843 542.784 231.924C547.412 231.969 553.724 230.924 556.81 229.6C561.909 227.413 561.783 227.2 555.407 227.276C551.55 227.321 545.239 228.368 541.382 229.6ZM522.5 234.34C525.23 235.052 529.017 235.004 530.916 234.237C532.815 233.47 530.582 232.89 525.954 232.946C521.325 233.002 519.771 233.629 522.5 234.34ZM342.442 239.632C342.577 242.894 343.242 243.558 344.136 241.327C344.947 239.305 344.846 236.889 343.915 235.959C342.984 235.029 342.322 236.681 342.442 239.632ZM510.001 237.112C512.024 237.922 514.444 237.821 515.376 236.891C516.307 235.962 514.652 235.301 511.695 235.421C508.427 235.556 507.763 236.219 510.001 237.112ZM547.435 240.8C547.435 244.65 548.072 246.226 548.849 244.3C549.628 242.376 549.628 239.226 548.849 237.3C548.072 235.376 547.435 236.95 547.435 240.8ZM501.106 254.1C498.669 268.822 498.887 285.6 501.516 285.6C502.733 285.6 504.08 276.15 504.512 264.6C505.359 241.886 503.883 237.334 501.106 254.1ZM508.484 254.8C508.484 261.73 509.03 264.564 509.701 261.1C510.368 257.637 510.368 251.964 509.701 248.5C509.03 245.036 508.484 247.87 508.484 254.8ZM228.615 259.484L217.394 263.214L228.615 261.556C239.661 259.927 243.305 258.493 241.005 256.679C240.362 256.172 234.786 257.435 228.615 259.484ZM342.641 269.609C342.285 280.932 342.826 282.458 346.117 279.409C348.26 277.424 349.006 275.167 347.775 274.392C346.54 273.616 344.975 269.206 344.296 264.592C343.415 258.614 342.941 260.059 342.641 269.609ZM196.356 267.4C189.414 269.408 186.258 271.076 189.343 271.11C192.429 271.144 200.003 269.508 206.174 267.478C220.701 262.699 212.828 262.637 196.356 267.4ZM291.204 267.912C293.227 268.722 295.648 268.621 296.579 267.691C297.51 266.762 295.855 266.101 292.899 266.221C289.631 266.356 288.966 267.019 291.204 267.912ZM384.518 268.265C384.392 270.362 382.796 271.085 380.79 269.954C378.008 268.386 377.997 268.747 380.743 271.704C384.734 275.999 388.389 273.706 386.213 268.276C385.004 265.258 384.701 265.255 384.518 268.265ZM308.035 270.712C310.057 271.522 312.478 271.421 313.409 270.491C314.341 269.562 312.686 268.901 309.729 269.021C306.461 269.156 305.797 269.819 308.035 270.712ZM360.454 271.6C352.818 273.54 352.689 273.75 359.051 273.871C362.908 273.946 368.588 272.924 371.674 271.6C378.591 268.632 372.134 268.632 360.454 271.6ZM27.4536 280C28.1324 284.62 29.1759 288.4 29.7706 288.4C30.368 288.4 30.8561 284.62 30.8561 280C30.8561 275.38 29.8126 271.6 28.5363 271.6C27.26 271.6 26.7747 275.38 27.4536 280ZM38.1522 274.084C45.35 277.292 91.4965 279.202 94.2959 276.408C95.4039 275.305 86.9466 274.386 75.5047 274.369C64.0627 274.352 49.6502 273.689 43.479 272.896C35.0189 271.81 33.7089 272.101 38.1522 274.084ZM406.737 274.789C406.737 276.114 409.893 277.2 413.75 277.2C417.607 277.2 420.763 276.716 420.763 276.128C420.763 275.537 417.607 274.45 413.75 273.714C409.893 272.978 406.737 273.462 406.737 274.789ZM207.997 298.9C208.438 324.517 209.666 321.65 210.999 291.895C211.431 282.268 210.836 274.392 209.68 274.395C208.525 274.397 207.764 285.426 207.997 298.9ZM106.593 288.935C106.593 299.737 106.908 300.241 110.563 295.252C113.239 291.6 113.561 289.237 111.556 288C109.92 286.992 109.356 284.147 110.305 281.683C111.253 279.216 110.804 277.2 109.312 277.2C107.816 277.2 106.593 282.481 106.593 288.935ZM424.971 278.74C433.038 281.896 490.89 293.009 490.89 291.402C490.89 290.368 476.691 286.734 459.333 283.329C430.112 277.598 417.871 275.962 424.971 278.74ZM50.7133 284.432C50.848 287.694 51.5128 288.358 52.4076 286.126C53.2183 284.105 53.1173 281.689 52.186 280.759C51.2547 279.829 50.5927 281.481 50.7133 284.432ZM513.331 282.985C513.331 284.424 517.328 285.6 522.214 285.6C532.551 285.6 531.956 283.741 520.98 281.756C516.773 280.994 513.331 281.548 513.331 282.985ZM134.12 284.712C136.142 285.522 138.563 285.421 139.494 284.491C140.426 283.562 138.771 282.901 135.814 283.021C132.546 283.156 131.881 283.819 134.12 284.712ZM385.138 296.8C385.138 305.27 385.663 308.736 386.305 304.5C386.948 300.264 386.948 293.336 386.305 289.1C385.663 284.864 385.138 288.33 385.138 296.8ZM119.368 288.154C118.498 289.559 119.651 290.436 121.926 290.103C127.934 289.223 130.776 285.6 125.46 285.6C122.978 285.6 120.237 286.748 119.368 288.154ZM638.858 287.577C642.331 288.243 648.008 288.243 651.481 287.577C654.954 286.908 652.112 286.362 645.17 286.362C638.227 286.362 635.386 286.908 638.858 287.577ZM143.761 290.405C148.005 291.046 154.945 291.046 159.189 290.405C163.433 289.764 159.96 289.24 151.475 289.24C142.989 289.24 139.517 289.764 143.761 290.405ZM168.305 291.035C168.305 292.485 169.568 294.448 171.11 295.4C172.653 296.352 173.915 295.165 173.915 292.765C173.915 290.366 172.653 288.4 171.11 288.4C169.568 288.4 168.305 289.585 168.305 291.035ZM528.097 290.41C532.36 291.052 538.672 291.035 542.122 290.371C545.572 289.708 542.083 289.181 534.369 289.201C526.655 289.223 523.833 289.767 528.097 290.41ZM25.4423 295.946C25.274 301.23 23.375 302.24 11.9218 303.142L-1.40234 304.192L11.9218 304.696L25.246 305.2V322.468C25.246 331.962 25.7256 339.209 26.3091 338.568C28.6345 336.017 29.8772 300.636 27.8266 295.395C25.7369 290.044 25.6303 290.069 25.4423 295.946ZM395.96 296.8C395.96 300.65 396.597 302.227 397.374 300.3C398.154 298.376 398.154 295.227 397.374 293.3C396.597 291.376 395.96 292.95 395.96 296.8ZM417.958 302.434C423.142 305.735 438.474 306.088 436.474 302.859C435.678 301.571 430.238 300.345 424.387 300.135C416.651 299.858 414.897 300.485 417.958 302.434ZM543.348 304.497L619.646 305.29L620.656 321.345L621.669 337.4L622.199 319.9L622.729 302.4L544.888 303.052L467.047 303.705L543.348 304.497ZM491.833 327.6C491.833 339.15 492.329 343.876 492.932 338.1C493.538 332.326 493.538 322.876 492.932 317.1C492.329 311.326 491.833 316.05 491.833 327.6ZM499.687 333.9C499.314 360.548 499.457 361.192 505.617 360.875C510.545 360.621 510.829 360.265 506.901 359.249C503.774 358.436 502.399 356.182 503.26 353.273C504.023 350.703 503.617 339.15 502.357 327.6L500.068 306.6L499.687 333.9ZM479.67 314.835C479.67 317.234 480.932 319.2 482.475 319.2C484.018 319.2 485.28 318.016 485.28 316.565C485.28 315.115 484.018 313.152 482.475 312.2C480.932 311.248 479.67 312.435 479.67 314.835ZM385.194 330.4C385.194 340.41 385.705 344.504 386.325 339.5C386.948 334.496 386.948 326.304 386.325 321.3C385.705 316.296 385.194 320.39 385.194 330.4ZM420.095 315.58C423.585 316.249 428.634 316.224 431.316 315.524C433.997 314.824 431.142 314.275 424.971 314.306C418.799 314.336 416.606 314.91 420.095 315.58ZM614.849 337.904C614.342 362.202 613.969 363.667 608.002 364.627C603.349 365.378 604.272 365.991 611.509 366.962C616.908 367.69 625.113 367.469 629.742 366.473C638.048 364.686 638.059 364.658 630.639 364.331C625.209 364.092 622.782 362.25 621.904 357.7C620.732 351.632 620.653 351.658 619.77 358.4C619.265 362.25 618.07 353.43 617.119 338.8L615.388 312.2L614.849 337.904ZM508.59 334.6C508.604 343.84 509.129 347.281 509.754 342.25C510.377 337.218 510.366 329.658 509.726 325.45C509.084 321.241 508.573 325.36 508.59 334.6ZM480.32 330.4C480.32 335.79 480.898 337.996 481.602 335.3C482.309 332.604 482.309 328.197 481.602 325.5C480.898 322.804 480.32 325.01 480.32 330.4ZM451.498 346.5L450.068 358.4L468.376 357.871L486.682 357.342L470.713 356.336L454.747 355.331L453.838 344.966L452.926 334.6L451.498 346.5ZM77.5748 343.921C75.0222 346.738 72.9324 351.148 72.9324 353.721C72.9324 357.053 70.5116 358.4 64.5171 358.4C59.8888 358.4 56.1019 359.403 56.1019 360.629C56.1019 362.889 141.679 356.905 147.118 354.264C150.257 352.741 115.09 354.698 90.4642 357.417C76.8259 358.924 75.7375 358.607 75.7375 353.122C75.7375 349.726 77.5299 347.2 79.9451 347.2C82.2593 347.2 84.1527 345.31 84.1527 343C84.1527 337.576 83.2074 337.708 77.5748 343.921ZM51.0387 348.6C51.0948 353.22 51.7232 354.771 52.4356 352.047C53.1481 349.323 53.1005 345.543 52.3319 343.647C51.5633 341.751 50.9826 343.98 51.0387 348.6ZM102.703 344.912C103.513 346.22 105.351 346.567 106.787 345.68C110.456 343.417 110.044 342.533 105.314 342.533C103.067 342.533 101.892 343.605 102.703 344.912ZM480.113 347.2C480.113 351.05 480.75 352.626 481.527 350.7C482.306 348.776 482.306 345.626 481.527 343.7C480.75 341.776 480.113 343.35 480.113 347.2ZM160.591 351.929C163.29 352.635 167.711 352.635 170.409 351.929C173.108 351.226 170.9 350.65 165.5 350.65C160.1 350.65 157.893 351.226 160.591 351.929ZM335.943 354.78C339.432 355.449 344.481 355.424 347.163 354.724C349.845 354.024 346.989 353.475 340.818 353.506C334.647 353.536 332.453 354.111 335.943 354.78ZM184.435 357.454C186.364 358.232 189.52 358.232 191.447 357.454C193.377 356.678 191.798 356.043 187.941 356.043C184.084 356.043 182.507 356.678 184.435 357.454ZM319.255 357.512C321.278 358.322 323.699 358.221 324.63 357.291C325.561 356.362 323.906 355.701 320.95 355.821C317.682 355.956 317.017 356.619 319.255 357.512ZM24.7102 361.62C20.7915 362.723 25.1562 363.552 35.765 363.72C45.4089 363.874 53.2968 363.054 53.2968 361.9C53.2968 359.321 33.5771 359.128 24.7102 361.62ZM521.045 360.377C524.517 361.043 530.195 361.043 533.668 360.377C537.14 359.708 534.299 359.162 527.356 359.162C520.414 359.162 517.572 359.708 521.045 360.377ZM124.178 363.141C126.908 363.852 130.695 363.804 132.594 363.037C134.493 362.27 132.26 361.69 127.632 361.746C123.003 361.802 121.449 362.429 124.178 363.141ZM560.316 363.25C566.874 363.84 577.601 363.84 584.159 363.25C590.717 362.662 585.351 362.177 572.237 362.177C559.124 362.177 553.758 362.662 560.316 363.25ZM43.4678 369.62C42.5085 371.171 53.4763 385.266 67.8468 400.943C107.662 444.391 124.049 460.785 99.4909 432.6C87.415 418.74 69.8721 399.482 60.5059 389.808C46.6207 375.458 44.256 371.723 47.6866 369.55C50.2 367.956 50.5506 366.867 48.5534 366.842C46.7161 366.82 44.4271 368.069 43.4678 369.62ZM58.2057 368.777C61.6784 369.443 67.3559 369.443 70.8286 368.777C74.3013 368.108 71.4597 367.562 64.5171 367.562C57.5746 367.562 54.733 368.108 58.2057 368.777ZM260.349 385.513C262.371 386.322 264.792 386.221 265.723 385.291C266.654 384.362 264.999 383.701 262.043 383.821C258.775 383.956 258.11 384.619 260.349 385.513ZM598.886 428.277C583.458 435.772 571.643 442.019 572.627 442.154C573.615 442.288 587.5 436.198 603.483 428.616C619.47 421.036 631.284 414.792 629.742 414.739C628.199 414.689 614.314 420.779 598.886 428.277ZM556.03 447.051C550.972 449.54 547.306 452.049 547.884 452.626C549.202 453.939 569.432 445.617 569.432 443.764C569.432 441.417 565.545 442.369 556.03 447.051Z" fill="white"/>
</svg>
